HIERARCHY
ROOT Pelvis
{
	OFFSET 0.000000 0.941512 0.000000
	CHANNELS 6 Xposition Yposition Zposition Zrotation Yrotation Xrotation 
	JOINT Pelvis_L_Hip
	{
		OFFSET 0.000000 0.000000 0.000000
		CHANNELS 3 Zrotation Yrotation Xrotation
		JOINT L_Hip
		{
			OFFSET 0.062321 -0.080322 -0.016990
			CHANNELS 3 Zrotation Yrotation Xrotation
			JOINT L_Knee
			{
				OFFSET 0.093051 -0.381305 -0.029784
				CHANNELS 3 Zrotation Yrotation Xrotation
				JOINT L_Ankle
				{
					OFFSET -0.010371 -0.431000 -0.033614
					CHANNELS 3 Zrotation Yrotation Xrotation
					End Site #name: L_Foot
					{
						OFFSET 0.069299 -0.038670 0.119418
					}
				}
			}
		}
	}
	JOINT Pelvis_R_Hip
	{
		OFFSET 0.000000 0.000000 0.000000
		CHANNELS 3 Zrotation Yrotation Xrotation
		JOINT R_Hip
		{
			OFFSET -0.055334 -0.094904 -0.002373
			CHANNELS 3 Zrotation Yrotation Xrotation
			JOINT R_Knee
			{
				OFFSET -0.064207 -0.384370 -0.019592
				CHANNELS 3 Zrotation Yrotation Xrotation
				JOINT R_Ankle
				{
					OFFSET 0.025418 -0.419734 -0.065953
					CHANNELS 3 Zrotation Yrotation Xrotation
					End Site #name: R_Foot
					{
						OFFSET -0.057233 -0.039888 0.132134
					}
				}
			}
		}
	}
	JOINT Pelvis_Spine1
	{
		OFFSET 0.000000 0.000000 0.000000
		CHANNELS 3 Zrotation Yrotation Xrotation
		JOINT Spine1
		{
			OFFSET -0.005562 0.124093 -0.043360
			CHANNELS 3 Zrotation Yrotation Xrotation
			JOINT Spine2
			{
				OFFSET 0.012244 0.139499 0.029894
				CHANNELS 3 Zrotation Yrotation Xrotation
				JOINT Spine3
				{
					OFFSET -0.002556 0.056561 0.009225
					CHANNELS 3 Zrotation Yrotation Xrotation
					JOINT Spine3_Neck
					{
						OFFSET 0.000000 0.000000 0.000000
						CHANNELS 3 Zrotation Yrotation Xrotation
						JOINT Neck
						{
							OFFSET -0.005205 0.217920 -0.024551
							CHANNELS 3 Zrotation Yrotation Xrotation
							End Site #name: Head
							{
								OFFSET 0.002365 0.091850 0.046637
							}
						}
					}
					JOINT Spine3_L_Collar
					{
						OFFSET 0.000000 0.000000 0.000000
						CHANNELS 3 Zrotation Yrotation Xrotation
						JOINT L_Collar
						{
							OFFSET 0.072225 0.116603 -0.009480
							CHANNELS 3 Zrotation Yrotation Xrotation
							JOINT L_Shoulder
							{
								OFFSET 0.115937 -0.058643 -0.021018
								CHANNELS 3 Zrotation Yrotation Xrotation
								JOINT L_Elbow
								{
									OFFSET 0.021994 -0.254722 -0.024492
									CHANNELS 3 Zrotation Yrotation Xrotation
									End Site #name: L_Wrist
									{
										OFFSET 0.048810 -0.240214 0.103329
									}
								}
							}
						}
					}
					JOINT Spine3_R_Collar
					{
						OFFSET 0.000000 0.000000 0.000000
						CHANNELS 3 Zrotation Yrotation Xrotation
						JOINT R_Collar
						{
							OFFSET -0.073372 0.120704 -0.024611
							CHANNELS 3 Zrotation Yrotation Xrotation
							JOINT R_Shoulder
							{
								OFFSET -0.108089 -0.054969 -0.020504
								CHANNELS 3 Zrotation Yrotation Xrotation
								JOINT R_Elbow
								{
									OFFSET -0.033684 -0.260739 0.009889
									CHANNELS 3 Zrotation Yrotation Xrotation
									End Site #name: R_Wrist
									{
										OFFSET -0.067980 -0.232763 0.118463
									}
								}
							}
						}
					}
				}
			}
		}
	}
}
MOTION
Frames: 8
Frame Time: 0.041667
0.000000 0.925308 0.000000 -1.465857 -2.217326 1.492631 0.000000 0.000000 0.000000 7.523778 -4.857421 -25.121715 -7.727892 2.318593 32.488708 8.481562 23.659225 0.714467 0.000000 0.000000 0.000000 7.111178 -0.543046 0.652508 -3.176862 0.934792 4.802156 -5.901492 -9.755296 -7.860356 0.000000 0.000000 0.000000 5.346447 -0.539250 -4.666239 -1.458712 0.391359 2.651665 3.864254 2.399772 6.203027 0.000000 0.000000 0.000000 -2.443730 1.252058 -13.344747 0.000000 0.000000 0.000000 13.481408 -4.358243 -0.215735 -23.839506 5.464011 9.295921 0.536057 -1.001472 -6.116989 0.000000 0.000000 0.000000 -18.391068 5.713109 -0.344649 26.041457 -4.725115 14.767460 -5.082192 -0.921676 -6.824848 
0.001305 0.923202 0.013771 -0.828900 -2.032556 2.486303 0.000000 0.000000 0.000000 6.921482 -5.288063 -27.012157 -8.289438 2.450527 31.260402 9.197536 26.403086 2.142747 0.000000 0.000000 0.000000 5.968363 -0.452389 0.514241 -2.496836 0.903130 5.999214 -6.492403 -10.943231 -8.700499 0.000000 0.000000 0.000000 4.663855 -0.211254 -6.343377 -1.714406 0.491710 3.502511 3.874431 2.467591 6.650308 0.000000 0.000000 0.000000 -2.274196 1.193308 -14.190737 0.000000 0.000000 0.000000 14.275797 -4.170474 0.053787 -27.548038 6.176681 9.092603 0.522285 -0.912937 -5.641014 0.000000 0.000000 0.000000 -19.107299 5.727496 -0.263857 27.903838 -4.922825 14.659937 -2.618735 0.547211 -6.945940 
0.004331 0.920379 0.029028 -0.410626 -1.716981 3.581600 0.000000 0.000000 0.000000 6.193477 -5.696540 -28.511849 -8.376787 2.342148 29.339920 10.769110 29.352383 1.694495 0.000000 0.000000 0.000000 4.879755 -0.295901 0.050077 -1.565597 0.835571 7.636654 -7.067033 -12.587576 -9.215427 0.000000 0.000000 0.000000 4.058630 0.115467 -8.245684 -1.888133 0.576008 4.292914 3.880418 2.605164 7.072711 0.000000 0.000000 0.000000 -1.919276 1.073846 -14.615070 0.000000 0.000000 0.000000 15.032424 -4.099042 0.261223 -30.566460 6.786362 9.003483 0.436385 -0.969221 -5.702947 0.000000 0.000000 0.000000 -19.807301 5.787667 -0.247050 29.166393 -5.000497 14.420709 -0.413660 1.693654 -6.452849 
0.008652 0.916585 0.045602 -0.037661 -1.234326 4.640837 0.000000 0.000000 0.000000 5.382256 -6.096634 -29.725445 -8.322042 2.162577 27.242537 12.237285 31.771946 0.875964 0.000000 0.000000 0.000000 3.862926 -0.114208 -0.580827 -0.734723 0.780883 9.540553 -7.630368 -14.595280 -9.465117 0.000000 0.000000 0.000000 3.391131 0.418854 -10.023033 -2.232104 0.641249 4.226915 3.856751 2.829987 8.156220 0.000000 0.000000 0.000000 -1.446550 0.923378 -15.136040 0.000000 0.000000 0.000000 16.382335 -4.063967 0.581780 -33.296386 7.114415 8.273242 0.458158 -0.934771 -5.583255 0.000000 0.000000 0.000000 -21.462325 5.742569 -0.046609 31.481016 -5.031283 13.719298 1.123681 2.376556 -5.758139 
0.013861 0.913041 0.063823 -0.123901 -0.632503 4.742084 0.000000 0.000000 0.000000 4.887950 -6.217869 -29.694953 -8.307913 1.996466 25.212287 13.737367 33.779698 -0.712717 0.000000 0.000000 0.000000 3.256022 -0.112260 -0.416933 0.212956 0.675411 11.666433 -8.093169 -16.740962 -9.266305 0.000000 0.000000 0.000000 2.975174 0.529001 -10.473196 -2.490951 0.687572 4.137232 3.874747 3.232548 8.648559 0.000000 0.000000 0.000000 -1.015157 0.797574 -15.459438 0.000000 0.000000 0.000000 16.972121 -3.962428 0.856307 -34.603270 6.983449 7.301614 0.321838 -0.891792 -5.052328 0.000000 0.000000 0.000000 -22.983268 5.995810 -0.162701 32.983601 -5.174909 13.593203 2.810074 3.296666 -5.568221 
0.020129 0.909307 0.082486 -0.263679 0.167644 4.973680 0.000000 0.000000 0.000000 4.448416 -6.358592 -29.767770 -8.263105 1.834289 23.401107 13.271746 34.434709 2.354827 0.000000 0.000000 0.000000 2.695234 0.001564 -0.839999 1.237260 0.515817 14.093943 -8.633696 -19.303642 -8.908037 0.000000 0.000000 0.000000 2.273756 0.673045 -10.929394 -2.588725 0.691212 3.899207 3.935596 3.661923 8.902759 0.000000 0.000000 0.000000 -0.645367 0.700896 -15.717239 0.000000 0.000000 0.000000 17.089159 -3.823142 1.097045 -34.679686 6.589703 6.369400 0.167579 -0.910369 -4.783064 0.000000 0.000000 0.000000 -23.496205 6.131682 -0.372477 33.063695 -5.239958 13.678723 4.484679 4.146648 -5.199860 
0.027650 0.909228 0.101550 -0.043433 1.145577 4.936562 0.000000 0.000000 0.000000 3.427923 -6.514169 -29.335449 -8.101530 1.647117 21.663637 13.017766 35.035223 4.641496 0.000000 0.000000 0.000000 1.588321 0.194090 -1.567163 2.493027 0.236880 17.046987 -8.887216 -21.625851 -7.461018 0.000000 0.000000 0.000000 0.814253 0.871343 -11.058537 -2.609242 0.705939 4.040236 4.166001 4.035541 8.586366 0.000000 0.000000 0.000000 -0.044443 0.519925 -15.716706 0.000000 0.000000 0.000000 16.420502 -3.833373 1.080509 -33.291001 5.902451 5.468378 -0.040328 -0.967033 -4.581294 0.000000 0.000000 0.000000 -22.795501 6.261829 -0.741779 31.807791 -5.157591 13.820424 5.687578 4.641237 -4.639536 
0.036255 0.914104 0.121838 -0.407075 2.216774 4.584766 0.000000 0.000000 0.000000 2.511025 -6.381040 -27.772321 -7.179371 1.257225 19.352055 12.408997 34.264222 5.356723 0.000000 0.000000 0.000000 1.054935 0.387841 -2.507337 3.679682 -0.108766 20.427547 -8.543577 -22.845812 -4.428495 0.000000 0.000000 0.000000 0.002898 0.948851 -10.723036 -2.703410 0.698468 3.651200 4.576317 4.452254 8.162489 0.000000 0.000000 0.000000 0.404708 0.370015 -14.755742 0.000000 0.000000 0.000000 15.840941 -4.369487 0.710609 -31.928399 5.465004 5.144788 0.156781 -0.903323 -4.729015 0.000000 0.000000 0.000000 -22.757374 6.873556 -1.425829 30.920620 -5.344190 14.515731 6.453174 4.999215 -4.413310 
